# xmcd CD database file
#
# Track frame offsets:
#	150
#	18622
#	42447
#	62022
#	80645
#	83465
#	119145
#	142375
#	162117
#	190967
#	212040
#	232302
#
# Disc length: 3378 seconds
#
# Revision: 0
# Processed by: cddbd v1.4PL0 Copyright (c) Steve Scherf et al.
# Submitted via: CD2WAV32(EN) R3.19
#
DISCID=b30d300c
DTITLE=PUSHIM - COLORS
DYEAR=1900
DGENRE=
TTITLE0=Burn Fire
TTITLE1=Heavenly
TTITLE2=Music is Mystic
TTITLE3=Set Me Free
TTITLE4=Crystal Flower
TTITLE5=Lyrical Feeling
TTITLE6=Candy
TTITLE7=Kanashikute Yarikirenai
TTITLE8=Namiga
TTITLE9=For Your Song
TTITLE10=It's Goin'on
TTITLE11=Colors
EXTD=
EXTT0=
EXTT1=
EXTT2=
EXTT3=
EXTT4=
EXTT5=
EXTT6=
EXTT7=
EXTT8=
EXTT9=
EXTT10=
EXTT11=
PLAYORDER=
